<svg width="24" height="24" viewBox="0 0 24 24" fill="none" xmlns="http://www.w3.org/2000/svg">
  <path d="M19.15 8H14V3H3C1.9 3 1 3.9 1 5V19H3C3 20.66 4.34 22 6 22C7.66 22 9 20.66 9 19H15C15 20.66 16.34 22 18 22C19.66 22 21 20.66 21 19H23V12L19.15 8ZM6 20.5C5.17 20.5 4.5 19.83 4.5 19C4.5 18.17 5.17 17.5 6 17.5C6.83 17.5 7.5 18.17 7.5 19C7.5 19.83 6.83 20.5 6 20.5ZM9.17 18C8.84 17.11 8.01 16.44 7 16.24V12H14.17L15 12.83V16.24C13.99 16.44 13.16 17.11 12.83 18H9.17ZM18 20.5C17.17 20.5 16.5 19.83 16.5 19C16.5 18.17 17.17 17.5 18 17.5C18.83 17.5 19.5 18.17 19.5 19C19.5 19.83 18.83 20.5 18 20.5ZM17 16.24V13.5H19.15L21 15.35V16.24C19.99 16.44 19.16 17.11 18.83 18H18C17.84 18 17.67 18.03 17.5 18.07C17.19 17.37 16.66 16.8 16 16.44C16.32 16.36 16.66 16.3 17 16.24Z" fill="white"/>
</svg> 