<?xml version="1.0" encoding="UTF-8"?>
<svg width="24px" height="24px" viewBox="0 0 24 24" version="1.1" xmlns="http://www.w3.org/2000/svg" xmlns:xlink="http://www.w3.org/1999/xlink">
    <g stroke="none" stroke-width="1" fill="none" fill-rule="evenodd">
        <path d="M12,15 C13.6568542,15 15,13.6568542 15,12 C15,10.3431458 13.6568542,9 12,9 C10.3431458,9 9,10.3431458 9,12 C9,13.6568542 10.3431458,15 12,15 Z" fill="#333333"/>
        <path d="M19.14,12.94 C19.18,12.64 19.2,12.33 19.2,12 C19.2,11.68 19.18,11.36 19.14,11.06 L21.16,9.48 C21.34,9.34 21.39,9.07 21.28,8.87 L19.36,5.54 C19.24,5.33 18.99,5.26 18.77,5.33 L16.38,6.29 C15.88,5.91 15.37,5.59 14.8,5.35 L14.4,2.81 C14.36,2.57 14.16,2.4 13.92,2.4 L10.08,2.4 C9.84,2.4 9.65,2.57 9.61,2.81 L9.21,5.35 C8.64,5.59 8.12,5.91 7.63,6.29 L5.24,5.33 C5.02,5.26 4.77,5.33 4.65,5.54 L2.74,8.87 C2.62,9.07 2.66,9.34 2.86,9.48 L4.88,11.06 C4.84,11.36 4.8,11.69 4.8,12 C4.8,12.31 4.82,12.64 4.86,12.94 L2.84,14.52 C2.66,14.66 2.61,14.93 2.72,15.13 L4.64,18.46 C4.76,18.67 5.01,18.74 5.23,18.67 L7.62,17.71 C8.12,18.09 8.63,18.41 9.2,18.65 L9.6,21.19 C9.65,21.43 9.84,21.6 10.08,21.6 L13.92,21.6 C14.16,21.6 14.36,21.43 14.4,21.19 L14.8,18.65 C15.37,18.41 15.88,18.09 16.37,17.71 L18.76,18.67 C18.98,18.74 19.23,18.67 19.35,18.46 L21.27,15.13 C21.39,14.92 21.34,14.66 21.14,14.52 L19.14,12.94 Z" stroke="#333333" stroke-width="1.5" fill-rule="nonzero"/>
    </g>
</svg> 