<?xml version="1.0" encoding="UTF-8"?>
<svg width="24" height="24" viewBox="0 0 24 24" fill="none" xmlns="http://www.w3.org/2000/svg">
  <path d="M12 12C14.21 12 16 10.21 16 8C16 5.79 14.21 4 12 4C9.79 4 8 5.79 8 8C8 10.21 9.79 12 12 12ZM12 14C9.33 14 4 15.34 4 18V20H15.09C14.44 18.61 14.28 17.04 14.71 15.56C15.12 14.23 15.96 13.09 17.09 12.33C15.59 12.11 13.85 12 12 12C9.79 12 5.57 13.14 5.57 15V16.5H13C12.36 15.35 12.23 14.17 12.65 13.09C11.79 13.04 10.9 13 10 13C7.33 13 2 14.34 2 17V19H12.09C11.44 17.61 11.28 16.04 11.71 14.56C12.12 13.23 12.96 12.09 14.09 11.33C12.59 11.11 10.85 11 9 11C6.79 11 2.57 12.14 2.57 14V15.5H10C9.54 14.73 9.35 13.87 9.44 13C8.36 13.05 7.4 13.21 6.57 13.46C5.87 13.67 5.29 13.96 4.91 14.25C4.33 14.67 4 15.1 4 15.5V18C4 19.5 5.97 20 9 20C11.21 20 13.12 19.73 14.04 19.15L13.79 18.85C12.62 19.54 10.5 19.5 9 19.5C7.97 19.5 5 19.4 5 18C5 16.5 10 16.5 10 16.5C10 16.5 9 16.5 9 15C9 13.97 11.97 13.5 15 13.5C17.1 13.5 19.05 13.73 19.96 14.15L20.2 13.85C19.18 13.29 16.94 13 15 13C13.83 13 11.17 13.2 10.07 13.84C10.45 13.31 10.97 12.8 11.71 12.49C9.32 12.49 7.4 11.88 6.32 11.03C4.38 11.65 3 12.84 3 14V17C3 18.65 5.46 19.69 9 19.95V20H20V18C20 15.34 14.67 14 12 14Z" fill="currentColor"/>
  <path d="M19.3 8.89C19.69 8.5 19.69 7.86 19.3 7.47L16.53 4.7C16.14 4.31 15.5 4.31 15.11 4.7L14 5.82L18.18 10L19.3 8.89ZM17.59 10.59L13.41 6.41L6.83 13H7V17H11V17.17L17.59 10.59Z" fill="currentColor"/>
</svg> 